# xmcd
#
# Track frame offsets:
#	150
#	14481
#	30788
#	47645
#	63912
#	79169
#	94781
#	111251
#	125457
#	138590
#	141404
#	144003
#	146574
#	148810
#	159592
#	167784
#	181095
#	195069
#	208940
#	224285
#	237358
#	253446
#	285646
#	306341
#
# Disc length: 4241 seconds
#
# Revision: 1
# Processed by: cddbd v1.5.2PL0 Copyright (c) Steve Scherf et al.
# Submitted via: audiograbber 1.83.01
#
DISCID=66108f18
DTITLE=BBQ  - Diverses
DYEAR=2010
DGENRE=pop
TTITLE0=BBQ - Cowboy and Indianer
TTITLE1=BBQ - Das geht ab!
TTITLE2=BBQ - Durch den Monsun
TTITLE3=BBQ - Ein Stern (Der deinen Namen trägt)
TTITLE4=Velile - Ela Ela E
TTITLE5=BBQ - Hamma!
TTITLE6=BBQ - Haus am See
TTITLE7=Velille - Helele (Safri Duo Single Mix)
TTITLE8=BBQ - Ich bau dir ein Schloss
TTITLE9=BBQ - Interlude 1
TTITLE10=BBQ - Interlude 2
TTITLE11=BBQ - Interlude 3
TTITLE12=BBQ - Intro
TTITLE13=BBQ - Liebeskummer lohnt sich nicht
TTITLE14=BBQ - Outro
TTITLE15=Lena - Satellite
TTITLE16=uwu Lena - Schland o Schland
TTITLE17=BBQ - Sie liebt den DJ
TTITLE18=Shakira - Waka Waka (This Time for Africa) [The Official 2010 FIFA Wor
TTITLE18=ld Cup Song] {feat. Freshlyground}
TTITLE19=BBQ - Wann wird's mal wieder richtig Sommer
TTITLE20=Kaan - Wavin' Flag (Celebration Mix)
TTITLE21=Michael Jackson - We Are the World
TTITLE22=Michael Jackson - You Are Not Alone (Radio Edit)
TTITLE23=BBQ - 54 74 90 2010
EXTD=
EXTT0=
EXTT1=
EXTT2=
EXTT3=
EXTT4=
EXTT5=
EXTT6=
EXTT7=
EXTT8=
EXTT9=
EXTT10=
EXTT11=
EXTT12=
EXTT13=
EXTT14=
EXTT15=
EXTT16=
EXTT17=
EXTT18=
EXTT19=
EXTT20=
EXTT21=
EXTT22=
EXTT23=
PLAYORDER=
